<svg xmlns="http://www.w3.org/2000/svg" viewBox="0 0 128 128" width="100%" height="100%">
  <!-- Exact primary black background with rounded corners -->
  <rect x="0" y="0" width="128" height="128" rx="28" ry="28" fill="#010101" />

  <!-- Center the exact white Material Design hive icon from the sidebar -->
  <svg x="20" y="20" width="88" height="88" viewBox="0 -960 960 960">
    <path fill="#FCF9F5" d="m390-80-68-120H190l-90-160 68-120-68-120 90-160h132l68-120h180l68 120h132l90 160-68 120 68 120-90 160H638L570-80H390Zm248-440h86l44-80-44-80h-86l-45 80 45 80ZM438-400h84l45-80-45-80h-84l-45 80 45 80Zm0-240h84l46-81-45-79h-86l-45 79 46 81ZM237-520h85l45-80-45-80h-85l-45 80 45 80Zm0 240h85l45-80-45-80h-86l-44 80 45 80Zm200 120h86l45-79-46-81h-84l-46 81 45 79Zm201-120h85l45-80-45-80h-85l-45 80 45 80Z"/>
  </svg>
</svg>